<?xml version="1.0" encoding="utf-8"?>
<!-- Generator: Adobe Illustrator 18.1.1, SVG Export Plug-In . SVG Version: 6.00 Build 0)  -->
<!DOCTYPE svg PUBLIC "-//W3C//DTD SVG 1.1//EN" "http://www.w3.org/Graphics/SVG/1.1/DTD/svg11.dtd">
<svg version="1.1" id="Layer_1" xmlns="http://www.w3.org/2000/svg" xmlns:xlink="http://www.w3.org/1999/xlink" x="0px" y="0px"
	 viewBox="0 0 793.7 793.7" enable-background="new 0 0 793.7 793.7" xml:space="preserve">
<path fill-rule="evenodd" clip-rule="evenodd" fill="#FFFFFF" d="M396.8,793.7C178,793.7,0,615.7,0,396.8S178,0,396.8,0
	s396.8,178,396.8,396.8S615.7,793.7,396.8,793.7z M731.5,451.2c-11.6-3.7-104.9-31.5-211.1-14.5c44.3,121.8,62.4,221.1,65.9,241.7
	C662.3,626.9,716.4,545.5,731.5,451.2z M529.3,709.4c-5-29.7-24.7-133.4-72.3-257.1c-0.7,0.3-1.5,0.5-2.2,0.8
	c-191.2,66.6-259.8,199.2-265.9,211.7c57.5,44.8,129.7,71.6,208.1,71.6C443.8,736.3,488.6,726.7,529.3,709.4z M145,624
	c7.7-13.1,100.7-167.2,275.5-223.7c4.4-1.4,8.9-2.8,13.4-4c-8.5-19.3-17.8-38.5-27.5-57.5C237.1,389.4,72.9,387.3,58.1,387
	c-0.1,3.4-0.2,6.9-0.2,10.4C57.9,484.4,90.9,563.9,145,624z M65,327.9c15.2,0.2,154.8,0.8,313.4-41.3
	c-56.2-99.8-116.7-183.8-125.7-196C157.9,135.3,87,222.8,65,327.9z M317.4,67.8c9.4,12.5,70.9,96.4,126.5,198.4
	c120.5-45.2,171.6-113.8,177.7-122.4C561.7,90.7,483,58.4,396.8,58.4C369.5,58.4,342.9,61.7,317.4,67.8z M659.2,183
	c-7.1,9.7-63.9,82.5-189.3,133.7c7.9,16.1,15.4,32.6,22.5,49.1c2.5,5.9,4.9,11.7,7.3,17.5c112.8-14.2,224.9,8.5,236,10.9
	C735,314.2,706.4,240.7,659.2,183z"/>
</svg>
