<?xml version="1.0" encoding="utf-8"?>
<!-- Generator: Adobe Illustrator 18.1.1, SVG Export Plug-In . SVG Version: 6.00 Build 0)  -->
<!DOCTYPE svg PUBLIC "-//W3C//DTD SVG 1.1//EN" "http://www.w3.org/Graphics/SVG/1.1/DTD/svg11.dtd">
<svg version="1.1" id="Capa_1" xmlns="http://www.w3.org/2000/svg" xmlns:xlink="http://www.w3.org/1999/xlink" x="0px" y="0px"
	 viewBox="-600 351 77.8 100" enable-background="new -600 351 77.8 100" xml:space="preserve">
<path fill="#FFFFFF" d="M-568,417.1c-2.6,13.8-5.8,27-15.3,33.9c-2.9-20.8,4.3-36.4,7.7-53c-5.7-9.6,0.7-29.1,12.8-24.3
	c14.9,5.9-12.9,35.9,5.8,39.6c19.5,3.9,27.4-33.8,15.3-46c-17.4-17.7-50.7-0.4-46.6,24.9c1,6.2,7.4,8.1,2.6,16.6
	c-11.2-2.5-14.5-11.3-14.1-23c0.7-19.2,17.2-32.6,33.9-34.5c21-2.4,40.7,7.7,43.4,27.5c3.1,22.3-9.5,46.5-31.9,44.7
	C-560.7,423.1-563.2,420-568,417.1z"/>
</svg>
